#!OML:ASF G:\JayActor3\Patient Classification 1\Patient 1\Session 6\male.ASF
:FULLY-SPECIFIED
:DEGREES
1158
root 4.39243 14.0717 -25.5202 203.947 -65.1985 -195.226
lowerback 33.0277 -2.1846 4.47283
upperback 7.47314 -2.06531 3.82633
thorax -8.61846 -1.53423 2.48305
lowerneck -6.31042 -1.63885 4.98936
upperneck 34.0716 -9.29953 8.66566
head 12.7473 -3.1872 1.1544
rclavicle 5.725e-014 -4.13472e-014
rhumerus -27.3836 10.7881 -90.8264
rradius 139.965
rwrist 9.53378
rhand -10.3501 -25.0948
rfingers 7.12502
rthumb 15.6465 -54.4821
lclavicle 5.725e-014 -4.13472e-014
lhumerus -35.6019 -3.67705 89.7108
lradius 120.656
lwrist 7.73715
lhand 5.07006 31.837
lfingers 7.12502
lthumb 30.4368 59.3443
rfemur -57.5174 -8.2093 16.6132
rtibia 82.4447
rfoot -31.6947 -10.4522
rtoes -7.39409
lfemur -52.7982 22.5979 -23.8181
ltibia 70.9203
lfoot -23.7293 -0.707784
ltoes -11.1205
1159
root 4.39104 14.0758 -25.52 203.636 -65.1912 -194.967
lowerback 33.0312 -2.18554 4.39208
upperback 7.45909 -2.09483 3.76159
thorax -8.63633 -1.54512 2.46857
lowerneck -6.3141 -1.62401 5.02526
upperneck 34.1255 -9.28678 8.61869
head 12.7668 -3.18343 1.13135
rclavicle -3.18055e-014 -2.38542e-014
rhumerus -27.4685 10.986 -90.956
rradius 140.024
rwrist 9.41634
rhand -10.1898 -25.121
rfingers 7.12502
rthumb 15.8008 -54.4961
lclavicle -3.18055e-014 -2.38542e-014
lhumerus -35.6056 -3.71121 89.6555
lradius 120.639
lwrist 7.74805
lhand 5.01223 31.8732
lfingers 7.12502
lthumb 30.3816 59.3907
rfemur -57.3805 -8.18585 16.724
rtibia 82.357
rfoot -31.6783 -10.4286
rtoes -7.3561
lfemur -52.6688 22.6006 -23.6524
ltibia 70.8957
lfoot -23.7414 -0.655633
ltoes -11.1562
1160
root 4.38957 14.0799 -25.5203 203.31 -65.1873 -194.686
lowerback 33.018 -2.18545 4.31904
upperback 7.44863 -2.12198 3.69497
thorax -8.64395 -1.5549 2.44633
lowerneck -6.31981 -1.60379 5.06449
upperneck 34.192 -9.27038 8.571
head 12.792 -3.17729 1.10793
rclavicle -2.38542e-014 3.33958e-014
rhumerus -27.5463 11.1763 -91.0866
rradius 140.089
rwrist 9.28789
rhand -10.0069 -25.1398
rfingers 7.12502
rthumb 15.977 -54.5009
lclavicle -2.38542e-014 3.33958e-014
lhumerus -35.6045 -3.75498 89.5904
lradius 120.624
lwrist 7.7646
lhand 4.96478 31.9046
lfingers 7.12502
lthumb 30.3364 59.4304
rfemur -57.2457 -8.15507 16.8501
rtibia 82.2669
rfoot -31.6666 -10.4234
rtoes -7.33919
lfemur -52.5473 22.6111 -23.4756
ltibia 70.8757
lfoot -23.754 -0.61348
ltoes -11.1873
1161
root 4.38826 14.0839 -25.5212 202.967 -65.1698 -194.378
lowerback 32.9885 -2.18111 4.21662
upperback 7.44235 -2.15402 3.64234
thorax -8.63999 -1.5669 2.45546
lowerneck -6.32256 -1.56448 5.05951
upperneck 34.2676 -9.22475 8.53723
head 12.8217 -3.16227 1.10123
rclavicle 5.24792e-014 4.13472e-014
rhumerus -27.6096 11.4132 -91.2045
rradius 140.155
rwrist 9.14477
rhand -9.80665 -25.1622
rfingers 7.12502
rthumb 16.1698 -54.5078
lclavicle 5.24792e-014 4.13472e-014
lhumerus -35.6044 -3.75301 89.5269
lradius 120.614
lwrist 7.78481
lhand 4.92522 31.9364
lfingers 7.12502
lthumb 30.2986 59.4692
rfemur -57.1197 -8.09989 16.9869
rtibia 82.1757
rfoot -31.6603 -10.4251
rtoes -7.29591
lfemur -52.4374 22.6443 -23.2931
ltibia 70.8601
lfoot -23.768 -0.578361
ltoes -11.2261
1162
root 4.38698 14.0879 -25.5224 202.612 -65.1269 -194.053
lowerback 32.9478 -2.16121 4.13089
upperback 7.44037 -2.16385 3.5629
thorax -8.62807 -1.56823 2.41863
lowerneck -6.32277 -1.53528 5.10232
upperneck 34.3351 -9.19962 8.49955
head 12.8468 -3.15115 1.08221
rclavicle 7.31528e-014 1.27222e-014
rhumerus -27.6661 11.6022 -91.3509
rradius 140.22
rwrist 9.02815
rhand -9.61303 -25.2015
rfingers 7.12502
rthumb 16.3563 -54.5318
lclavicle 7.31528e-014 1.27222e-014
lhumerus -35.6011 -3.81215 89.4345
lradius 120.609
lwrist 7.8272
lhand 4.87764 31.9599
lfingers 7.12502
lthumb 30.2533 59.501
rfemur -56.9971 -8.01738 17.1241
rtibia 82.0817
rfoot -31.6539 -10.4394
rtoes -7.28025
lfemur -52.3286 22.7078 -23.1121
ltibia 70.8462
lfoot -23.785 -0.547532
ltoes -11.2746
1163
root 4.38566 14.0916 -25.5235 202.244 -65.0575 -193.718
lowerback 32.896 -2.12984 4.03842
upperback 7.44937 -2.1647 3.47213
thorax -8.60009 -1.56551 2.3693
lowerneck -6.32558 -1.50278 5.15625
upperneck 34.4 -9.17083 8.46181
head 12.871 -3.13699 1.06159
rclavicle 7.95139e-016 4.45278e-014
rhumerus -27.7044 11.7819 -91.4978
rradius 140.285
rwrist 8.91352
rhand -9.41572 -25.26
rfingers 7.12502
rthumb 16.5462 -54.5745
lclavicle 7.95139e-016 4.45278e-014
lhumerus -35.591 -3.8792 89.324
lradius 120.611
lwrist 7.87912
lhand 4.83815 31.9729
lfingers 7.12502
lthumb 30.2156 59.5209
rfemur -56.8754 -7.90966 17.2567
rtibia 81.9879
rfoot -31.6485 -10.4556
rtoes -7.26095
lfemur -52.2155 22.7993 -22.9336
ltibia 70.8345
lfoot -23.8069 -0.521057
ltoes -11.3213
1164
root 4.38414 14.0955 -25.5242 201.877 -64.9742 -193.393
lowerback 32.8397 -2.08799 3.98367
upperback 7.47178 -2.14512 3.34358
thorax -8.55713 -1.55358 2.25197
lowerneck -6.34229 -1.48709 5.26379
upperneck 34.4477 -9.18057 8.44306
head 12.8925 -3.13069 1.03379
rclavicle 4.85035e-014 -3.97569e-014
rhumerus -27.7308 11.882 -91.674
rradius 140.348
rwrist 8.82828
rhand -9.23454 -25.3465
rfingers 7.12502
rthumb 16.7207 -54.6464
lclavicle 4.85035e-014 -3.97569e-014
lhumerus -35.5589 -4.03211 89.1767
lradius 120.609
lwrist 7.9405
lhand 4.80843 31.9734
lfingers 7.12502
lthumb 30.1872 59.5266
rfemur -56.7421 -7.79996 17.3776
rtibia 81.8913
rfoot -31.6394 -10.4675
rtoes -7.26131
lfemur -52.0849 22.8985 -22.76
ltibia 70.8209
lfoot -23.8334 -0.492922
ltoes -11.3597
